<?xml version="1.0" encoding="utf-8"?>
<!-- Svg Vector Icons : http://www.onlinewebfonts.com/icon -->
<!DOCTYPE svg PUBLIC "-//W3C//DTD SVG 1.1//EN" "http://www.w3.org/Graphics/SVG/1.1/DTD/svg11.dtd">
<svg version="1.1" xmlns="http://www.w3.org/2000/svg" xmlns:xlink="http://www.w3.org/1999/xlink" x="0px" y="0px" viewBox="0 0 256 256" enable-background="new 0 0 256 256" xml:space="preserve">
<metadata> Svg Vector Icons : http://www.onlinewebfonts.com/icon </metadata>
<g><g><path fill="#000000" d="M226.4,133.2L246,128l-19.6-5.2c-2.6-50.3-43-90.7-93.3-93.3L128,10l-5.1,19.6c-50.3,2.6-90.6,43-93.3,93.3L10,128l19.6,5.1c2.6,50.3,43,90.6,93.2,93.2L128,246l5.1-19.6C183.4,223.8,223.8,183.4,226.4,133.2z M128,211.3c-45.9,0-83.3-37.4-83.3-83.3S82.1,44.7,128,44.7c45.9,0,83.3,37.4,83.3,83.3C211.3,173.9,173.9,211.3,128,211.3z M143.1,128.1l-14.5-71.7l-15.8,71.4l0,0v0.1v0h0l14.5,71.7l15.8-71.4h0L143.1,128.1L143.1,128.1L143.1,128.1z M118.7,127.9l9.8-44.3l9,44.5L118.7,127.9z M80.6,117.9h2.1l-5.6,20.2h-2h-2l-3.2-15.9l-3.2,15.9h-2h-2L57,117.9h2.2h2.2l3.4,14.8l2.9-14.8H70h2.3l2.9,14.7l3.4-14.7H80.6z M199,134.5v1.8v1.8h-15.4v-20.3h14.9v1.8v1.8h-10.6v4.3h9.9v1.7v1.8h-9.9v5.3L199,134.5L199,134.5z"/></g></g>
</svg>