<svg width="18" height="24" viewBox="0 0 18 24" fill="none" xmlns="http://www.w3.org/2000/svg">
<path d="M0 24H12.3915L13.7191 19.3021H6.53617L6.57021 19.166C6.70638 18.6553 6.97872 18.3489 7.45532 17.8723L15.0468 10.4851C16.2043 9.3617 16.8851 8.30638 17.2936 6.8766L17.566 5.85532C18.4851 2.65532 17.3277 0 13.617 0H11.3702C8.27234 0 6.43404 1.42979 5.34468 5.2766L4.45957 8.34043H9.15745L9.94043 5.61702C10.1787 4.76596 10.4851 4.28936 11.3021 4.28936H11.8809C12.766 4.28936 13.0383 4.69787 12.8 5.54894L12.4936 6.60426C12.3234 7.18298 12.0511 7.59149 11.5745 8.06809L3.88085 15.4894C2.45106 16.8851 1.63404 18.2809 1.1234 20.0511L0 24Z" fill="#262626"/>
</svg>
