<svg width="17" height="24" viewBox="0 0 17 24" fill="none" xmlns="http://www.w3.org/2000/svg">
<path d="M4.21916 24H6.41635C9.4924 24 11.3178 22.5803 12.3994 18.7606L13.3121 15.5831C13.7516 14.0282 13.4811 12.8113 12.3994 12C13.8192 11.3239 14.7318 10.2085 15.2051 8.48451L15.9149 5.81408C16.7938 2.63662 15.6783 0 11.9938 0H9.96564C6.88958 0 5.06423 1.41972 3.98254 5.23944L3.23888 7.90986H7.70085L8.34311 5.57747C8.57973 4.7324 8.88395 4.25915 9.69522 4.25915H10.2699C11.1487 4.25915 11.4192 4.66479 11.1825 5.50986L10.3713 8.31549C10.1347 9.16056 9.83043 9.6338 9.01916 9.6338H7.19381L5.8755 14.2986H7.59944C8.47832 14.2986 8.71494 14.7042 8.47832 15.5493L7.66705 18.4225C7.43043 19.2676 7.1262 19.7408 6.31494 19.7408H5.57128C4.6924 19.7408 4.42198 19.3352 4.6586 18.4901L5.50367 15.5493H1.0417L0.298035 18.1859C-0.614641 21.3634 0.534654 24 4.21916 24Z" fill="#262626"/>
</svg>
