<svg width="91" height="28" viewBox="0 0 91 28" fill="none" xmlns="http://www.w3.org/2000/svg">
<path fill-rule="evenodd" clip-rule="evenodd" d="M16.6127 12.9787L17.5923 9.5118H22.1368C24.5306 9.5118 25.9908 8.41812 26.6519 6.08203L27.0201 4.8024C27.8635 1.83577 26.488 0 23.4589 0H3.67166L0 12.9787H16.6127ZM23.4405 3.50415L22.669 6.30336H18.5001L19.2919 3.51344L23.4405 3.50415ZM28.7086 12.9787L29.9258 10.81H35.5547V12.9787H39.2633V0H31.9936L24.4127 12.9787H28.7086ZM34.0174 3.52273H35.5547V7.65741H31.6879L34.0174 3.52273ZM54.6883 4.8024L54.3513 5.97042H54.3441C53.8615 7.69091 52.9464 8.72875 51.5579 9.16213L52.7181 12.9787H48.7592L47.6801 9.4002H45.2862L44.2736 12.9787H40.4198L44.0895 0H51.1198C54.1487 0 55.5263 1.79857 54.6883 4.8024ZM51.1033 3.50415H46.9547L46.1611 6.30336H50.3335L51.1033 3.50415ZM57.9679 12.9787L61.6376 0H57.7838L54.1118 12.9787H57.9679ZM30.0326 20.0223L34.3801 14.8331H39.372L35.7023 27.8118H31.8464L33.964 20.3906L30.3788 24.6406H27.9003L26.5506 20.6287L24.5233 27.8118H7.9105L11.5822 14.8331H28.2502L30.0326 20.0223ZM44.5184 14.8331L36.9376 27.8118H41.2335L42.4506 25.6412H48.0796V27.8118H51.7862V14.8331H44.5184ZM44.2202 22.4905L46.5419 18.3558H48.0796V22.4905H44.2202ZM65.8471 14.8331L64.8012 18.5418H61.183L58.5609 27.8118H54.7067L57.3289 18.5418H53.1084L54.1543 14.8331H65.8471ZM69.922 18.5418H75.7591L76.8254 14.8331H70.6015C68.2077 14.8331 66.7474 15.9267 66.0866 18.2628L64.7275 23.0094C63.8657 26.0504 65.2598 27.8118 68.2887 27.8118H73.135L74.1812 24.103H68.3441L69.922 18.5418ZM85.4613 19.468L86.7743 14.8331H90.6281L86.9565 27.8118H83.1024L84.4134 23.1768H80.0072L78.6962 27.8118H74.842L78.514 14.8331H82.3678L81.0567 19.468H85.4613Z" fill="#4F4F4F"/>
</svg>
