<svg xmlns="http://www.w3.org/2000/svg" width="280" height="185" viewBox="0 0 280 185"><g><g opacity=".6"><g opacity=".6"><path fill="#4dbad6" d="M185.52 39.096l7.25-12.548h.002z"/></g><g opacity=".6"><path fill="#4dbad6" d="M194.665 59.327l-9.879-17.093c-.056-.098-.088-.202-.125-.305.037.102.068.205.124.302z"/></g><g opacity=".6"><path fill="#4dbad6" d="M208.194 82.225z"/></g><g opacity=".6"><path fill="#4dbad6" d="M211.995 26.8l-.012-.004.012.004z"/></g><g opacity=".6"><path fill="#4dbad6" d="M83.256 118.574l13.582 23.507a1.885 1.885 0 0 1 0 1.854L83.25 167.433 69.68 143.954a1.901 1.901 0 0 1 0-1.892z"/></g><g opacity=".6"><path fill="#4dbad6" d="M141.06 102.758l22.715 39.304c.33.598.33 1.317 0 1.892l-7.992 13.802h-18.34a1.88 1.88 0 0 1-1.644-.96l-31.775-54.97h35.403c.675 0 1.296.353 1.633.932z"/></g><g opacity=".6"><path fill="#4dbad6" d="M192.772 26.547h18.265z"/></g><g opacity=".6"><path fill="#4dbad6" d="M212.688 27.51a1.825 1.825 0 0 0 0-.002l31.78 54.96z"/></g><g opacity=".6"><path fill="#4dbad6" d="M208.194 82.225c.28.158.604.243.938.243h35.335-35.336c-.334 0-.657-.085-.937-.243z"/></g><g opacity=".6"><path fill="#4dbad6" d="M207.76 81.873a1.784 1.784 0 0 1-.256-.332l-12.84-22.214 12.84 22.213c.07.125.162.231.257.333z"/></g><g opacity=".6"><path fill="#4dbad6" d="M184.661 41.929a1.84 1.84 0 0 1 .124-1.56l.735-1.273-.735 1.272a1.846 1.846 0 0 0-.124 1.56z"/></g><g opacity=".3"><g opacity=".3"><path fill="#4dbad6" d="M211.995 26.8l-.012-.004a1.909 1.909 0 0 0-.946-.25h-18.264v.002h-.004l14.736-25.506a1.878 1.878 0 0 1 1.628-.928h45.42c.67 0 1.298.349 1.631.928l22.722 39.325c.334.572.334 1.28 0 1.867L256.184 81.54a1.86 1.86 0 0 1-1.632.927h-10.084l-31.779-54.96a1.838 1.838 0 0 0-.694-.708z"/></g></g><g opacity=".3"><g opacity=".3"><path fill="#4dbad6" d="M10.598 74.76c.314-.56.905-.903 1.553-.903h20.674c.632 0 1.224.344 1.544.904l10.346 17.893a1.785 1.785 0 0 1 0 1.775l-10.346 17.914c-.32.55-.912.88-1.544.88H12.15a1.77 1.77 0 0 1-1.553-.88L.254 94.429a1.752 1.752 0 0 1 0-1.775z"/></g></g><g opacity=".3"><g opacity=".3"><path fill="#4dbad6" d="M45.658 114.397a1.83 1.83 0 0 1 1.598-.927H79.24a1.85 1.85 0 0 1 1.6.927l2.409 4.171 9.133-15.809c.333-.582.962-.93 1.629-.93h10.007l-5.037-8.725a1.875 1.875 0 0 1 0-1.91l36.815-63.684c.326-.61.967-.962 1.65-.962h55.323l-7.25 12.548-.735 1.273a1.842 1.842 0 0 0-.125 1.56c.039.102.07.207.125.304l9.88 17.094 12.839 22.214c.072.124.162.231.257.332.128.138.272.26.434.352.28.158.602.244.938.244h35.336l5.045 8.724a1.894 1.894 0 0 1 0 1.911l-36.825 63.688a1.894 1.894 0 0 1-1.651.961H155.8l-14.74 25.506a1.9 1.9 0 0 1-1.633.934H94.012a1.9 1.9 0 0 1-1.63-.934l-9.14-15.824-2.4 4.152a1.851 1.851 0 0 1-1.601.931H47.256a1.827 1.827 0 0 1-1.598-.93L29.66 143.932a1.833 1.833 0 0 1 0-1.855zm90.14 42.398a1.88 1.88 0 0 0 1.645.961h18.34l7.993-13.802a1.937 1.937 0 0 0 0-1.892l-22.716-39.304a1.881 1.881 0 0 0-1.633-.93h-35.403zM69.68 142.062a1.897 1.897 0 0 0 0 1.892l13.57 23.48 13.588-23.499a1.885 1.885 0 0 0 0-1.854l-13.583-23.507z"/></g></g><g opacity=".6"><path fill="#4dbad6" d="M211.037 26.547c.339 0 .663.087.946.25l.012.002c.285.165.526.406.693.71l31.78 54.96h-35.335c-.334 0-.659-.087-.939-.245a1.847 1.847 0 0 1-.433-.352 1.772 1.772 0 0 1-.256-.33l-12.84-22.215-9.88-17.097c-.056-.096-.087-.2-.124-.302a1.846 1.846 0 0 1 .125-1.56l.734-1.273 7.253-12.548z"/></g></g></g></svg>