<?xml version="1.0" encoding="UTF-8"?>
<svg id="SVGDoc" width="69" height="46" xmlns="http://www.w3.org/2000/svg" version="1.1" xmlns:xlink="http://www.w3.org/1999/xlink" xmlns:avocode="https://avocode.com/" viewBox="0 0 69 46"><defs></defs><desc>Generated with Avocode.</desc><g><g opacity="0.600006"><title>&lt;Group&gt;</title><g opacity="0.600006"><title>&lt;Path&gt;</title><path d="M46.1855,9.7564v0l1.776,-3.076v0h0.001v0z" fill="#4dbad6" fill-opacity="1"></path></g><g opacity="0.600006"><title>&lt;Path&gt;</title><path d="M48.4267,14.7154v0l-2.422,-4.19c-0.014,-0.024 -0.021,-0.049 -0.03,-0.075c0.009,0.025 0.016,0.05 0.03,0.075z" fill="#4dbad6" fill-opacity="1"></path></g><g opacity="0.600006"><title>&lt;Path&gt;</title><path d="M51.7431,20.3277c-0.04,-0.022 -0.075,-0.052 -0.106,-0.086c0.032,0.034 0.066,0.064 0.106,0.086z" fill="#4dbad6" fill-opacity="1"></path></g><g opacity="0.600006"><title>&lt;Path&gt;</title><path d="M52.6748,6.7418c-0.001,0 -0.002,0 -0.003,-0.001c0.001,0.001 0.002,0.001 0.003,0.001z" fill="#4dbad6" fill-opacity="1"></path></g><g opacity="0.600006"><title>&lt;Path&gt;</title><path d="M21.1172,29.2388v0l3.33,5.762c0.079,0.141 0.079,0.313 0,0.454l-3.331,5.761v0l-3.326,-5.756c-0.083,-0.141 -0.083,-0.318 0,-0.464z" fill="#4dbad6" fill-opacity="1"></path></g><g opacity="0.600006"><title>&lt;Path&gt;</title><path d="M35.2871,25.3619v0l5.567,9.634c0.081,0.146 0.081,0.323 0,0.464l-1.959,3.383v0h-4.495c-0.167,0 -0.323,-0.089 -0.403,-0.236l-7.789,-13.474v0h8.679c0.165,0 0.317,0.086 0.4,0.229z" fill="#4dbad6" fill-opacity="1"></path></g><g opacity="0.600006"><title>&lt;Path&gt;</title><path d="M47.9629,6.6802v0v0v0h4.478c0.083,0 0.162,0.021 0.231,0.061c-0.069,-0.04 -0.148,-0.061 -0.231,-0.061z" fill="#4dbad6" fill-opacity="1"></path></g><g opacity="0.600006"><title>&lt;Path&gt;</title><path d="M52.8447,6.9156c-0.041,-0.074 -0.1,-0.133 -0.17,-0.174c0.07,0.041 0.129,0.1 0.17,0.174l7.79,13.473v0z" fill="#4dbad6" fill-opacity="1"></path></g><g opacity="0.600006"><title>&lt;Path&gt;</title><path d="M51.7431,20.3277c0.069,0.039 0.148,0.061 0.23,0.061h8.662v0h-8.663c-0.082,0 -0.16,-0.022 -0.229,-0.061z" fill="#4dbad6" fill-opacity="1"></path></g><g opacity="0.600006"><title>&lt;Path&gt;</title><path d="M51.6367,20.2418c-0.023,-0.024 -0.045,-0.051 -0.062,-0.081l-3.148,-5.445v0l3.148,5.445c0.017,0.03 0.039,0.057 0.062,0.081z" fill="#4dbad6" fill-opacity="1"></path></g><g opacity="0.600006"><title>&lt;Path&gt;</title><path d="M45.9746,10.4507c-0.046,-0.127 -0.038,-0.266 0.03,-0.383l0.181,-0.311v0l-0.181,0.311c-0.068,0.117 -0.075,0.256 -0.03,0.383z" fill="#4dbad6" fill-opacity="1"></path></g><g opacity="0.300003"><title>&lt;Group&gt;</title><g opacity="0.300003"><title>&lt;Path&gt;</title><path d="M52.6748,6.7418c-0.001,0 -0.002,0 -0.003,-0.001c-0.069,-0.039 -0.148,-0.061 -0.231,-0.061h-4.478v0h-0.001v0l3.612,-6.251c0.083,-0.143 0.235,-0.228 0.4,-0.228h11.133c0.165,0 0.319,0.085 0.4,0.228l5.57,9.639c0.081,0.14 0.081,0.314 0,0.457l-5.57,9.636c-0.081,0.144 -0.235,0.227 -0.4,0.227h-2.472v0l-7.79,-13.472c-0.04,-0.074 -0.1,-0.133 -0.17,-0.174z" fill="#4dbad6" fill-opacity="1"></path></g></g><g opacity="0.300003"><title>&lt;Group&gt;</title><g opacity="0.300003"><title>&lt;Path&gt;</title><path d="M3.3066,18.4986c0.077,-0.138 0.223,-0.222 0.381,-0.222h5.067c0.156,0 0.301,0.084 0.379,0.222l2.536,4.386c0.077,0.135 0.077,0.3 0,0.435l-2.536,4.391c-0.078,0.136 -0.223,0.217 -0.379,0.217h-5.067c-0.158,0 -0.304,-0.081 -0.381,-0.217l-2.535,-4.391c-0.079,-0.135 -0.079,-0.3 0,-0.435z" fill="#4dbad6" fill-opacity="1"></path></g></g><g opacity="0.300003"><title>&lt;Group&gt;</title><g opacity="0.300003"><title>&lt;Path&gt;</title><path d="M11.901,28.2147c0.08,-0.141 0.229,-0.228 0.392,-0.228h7.84c0.161,0 0.312,0.087 0.392,0.228l0.591,1.022l2.238,-3.875c0.082,-0.142 0.237,-0.228 0.4,-0.228h2.453l-1.234,-2.139c-0.086,-0.145 -0.086,-0.322 0,-0.468l9.024,-15.611c0.08,-0.149 0.236,-0.235 0.404,-0.235h13.561l-1.776,3.076l-0.181,0.311c-0.069,0.117 -0.076,0.257 -0.03,0.383c0.008,0.025 0.016,0.051 0.03,0.074l2.422,4.191l3.147,5.445c0.018,0.03 0.04,0.057 0.063,0.081c0.031,0.034 0.066,0.064 0.106,0.086c0.069,0.039 0.148,0.061 0.231,0.061h8.661l1.237,2.138c0.084,0.146 0.084,0.323 0,0.468l-9.027,15.612c-0.084,0.147 -0.237,0.236 -0.405,0.236h-13.54l-3.613,6.252c-0.082,0.139 -0.235,0.229 -0.4,0.229h-11.133c-0.163,0 -0.318,-0.09 -0.4,-0.229l-2.24,-3.879l-0.589,1.017c-0.081,0.143 -0.231,0.229 -0.392,0.229h-7.84c-0.163,0 -0.312,-0.086 -0.392,-0.229l-3.921,-6.778c-0.083,-0.142 -0.083,-0.313 0,-0.455zM33.997,38.6067c0.08,0.147 0.236,0.237 0.403,0.237h4.495l1.959,-3.384c0.082,-0.141 0.082,-0.318 0,-0.464l-5.567,-9.634c-0.083,-0.142 -0.235,-0.228 -0.4,-0.228h-8.679zM17.79,34.9957c-0.083,0.146 -0.083,0.323 0,0.464l3.326,5.756l3.331,-5.761c0.079,-0.141 0.079,-0.313 0,-0.454l-3.33,-5.762z" fill="#4dbad6" fill-opacity="1"></path></g></g><g opacity="0.600006"><title>&lt;Path&gt;</title><path d="M52.4404,6.6802c0.083,0 0.162,0.021 0.231,0.061c0.001,0.001 0.002,0.001 0.003,0.001c0.071,0.041 0.129,0.099 0.17,0.173l7.79,13.473v0h-8.661c-0.082,0 -0.161,-0.021 -0.23,-0.061c-0.04,-0.022 -0.074,-0.051 -0.107,-0.085c-0.023,-0.025 -0.045,-0.051 -0.062,-0.082l-3.148,-5.445v0l-2.422,-4.191c-0.013,-0.024 -0.021,-0.049 -0.03,-0.073c-0.045,-0.127 -0.038,-0.266 0.03,-0.383l0.181,-0.312v0l1.777,-3.076v0z" fill="#4dbad6" fill-opacity="1"></path></g></g></g></svg>