<svg xmlns="http://www.w3.org/2000/svg" width="145" height="40" viewBox="0 0 145 40"><g><g><path fill="#4dbad7" d="M44.066 17.085l-3.548-6.146a.294.294 0 0 0-.255-.145h-7.092a.293.293 0 0 0-.254.145l-3.547 6.146a.288.288 0 0 0 0 .292l3.547 6.143a.288.288 0 0 0 .254.145h7.092a.29.29 0 0 0 .255-.145l3.548-6.142a.293.293 0 0 0 0-.292z"/></g><g><path fill="#a6b0b7" d="M7.497 25.533a.28.28 0 0 0 0-.277L5.882 22.46a.277.277 0 0 0-.24-.14H2.412a.278.278 0 0 0-.243.14L.555 25.256a.275.275 0 0 0 0 .277l1.615 2.8a.28.28 0 0 0 .243.138h3.228a.278.278 0 0 0 .241-.138zm26.23-10.457a.29.29 0 0 0-.258-.15H21.976a.292.292 0 0 0-.257.15l-5.749 9.952a.29.29 0 0 0 0 .298l.787 1.364h-1.562a.292.292 0 0 0-.255.146l-1.426 2.47-.376-.652a.29.29 0 0 0-.25-.145H7.895a.285.285 0 0 0-.25.145L5.147 32.98a.284.284 0 0 0 0 .29l2.498 4.321a.284.284 0 0 0 .25.146h4.994a.289.289 0 0 0 .25-.146l.375-.648 1.427 2.472c.053.09.15.146.255.146h7.091a.292.292 0 0 0 .254-.146l2.302-3.986h8.625a.294.294 0 0 0 .258-.15l5.75-9.953a.29.29 0 0 0 0-.298z"/></g><g><path fill="#768080" d="M26.09 32.977a.305.305 0 0 1 0 .296l-1.25 2.158h-2.862a.294.294 0 0 1-.257-.15l-4.962-8.59h5.529c.105 0 .202.054.254.144zm-10.454.003c.052.091.052.2 0 .29l-2.12 3.673-2.12-3.67a.295.295 0 0 1 0-.296l2.12-3.67z"/></g><g><path fill="#0096be" d="M33.469 14.926h-2.852l-1.247 2.16a.29.29 0 0 0 0 .29l3.547 6.144c.054.092.15.145.255.145h5.518l-4.963-8.59a.291.291 0 0 0-.258-.15z"/></g><g><path fill="#0096be" d="M48.356 28.623h1.868v4.497h4.29v-4.497h1.87v10.768h-1.87V34.8h-4.29v4.592h-1.868zm9.595 8.82c-.16-.49-.27-1.077-.27-1.868 0-.792.097-1.393.254-1.885.428-1.33 1.6-2.106 3.12-2.106 1.567 0 2.708.808 3.135 2.106.175.538.254 1.061.254 2.296 0 .095-.064.158-.174.158h-4.704a.096.096 0 0 0-.095.094c0 .223.048.413.11.587.254.745.856 1.156 1.71 1.156.857 0 1.41-.317 1.79-.728.08-.079.159-.094.239-.03l.933.822c.079.063.079.142.017.221-.65.761-1.726 1.3-3.136 1.3-1.615 0-2.755-.792-3.183-2.123zm4.608-3.373c-.205-.617-.776-.98-1.488-.98-.73 0-1.3.363-1.505.98-.063.19-.095.38-.095.65 0 .051.043.095.095.095h2.993a.097.097 0 0 0 .096-.096c0-.269-.033-.459-.096-.649zm7.696 5.321a.159.159 0 0 1-.158-.159v-.553h-.017c-.364.523-1.076.886-2.154.886-1.393 0-2.564-.728-2.564-2.328 0-1.662 1.17-2.422 3.056-2.422h1.552a.095.095 0 0 0 .095-.095v-.365c0-.87-.412-1.267-1.695-1.267-.855 0-1.378.238-1.742.523-.08.063-.174.047-.221-.032l-.586-1.045c-.047-.079-.032-.158.032-.206.617-.444 1.457-.744 2.708-.744 2.327 0 3.182.792 3.182 2.66v5.147zm-.19-2.566v-.585a.095.095 0 0 0-.095-.096h-1.268c-1.14 0-1.645.318-1.645 1.03 0 .634.458.95 1.313.95 1.093 0 1.695-.428 1.695-1.299zm5.352 2.661c-1.49 0-2.091-.712-2.091-2.186v-8.677H75.1v8.582c0 .523.205.697.665.697h.348c.087 0 .158.071.158.16v1.424zm4.228 0c-1.536 0-2.122-.743-2.122-2.233v-4.022a.096.096 0 0 0-.096-.095h-.507a.159.159 0 0 1-.158-.159v-1.06c0-.088.07-.159.158-.159h.507a.095.095 0 0 0 .096-.095v-2.249h1.773v2.344h1.267v1.378h-1.267v4.054c0 .538.222.712.713.712h.396c.087 0 .158.071.158.16v1.424zm6.967-.095v-4.56c0-.982-.492-1.664-1.441-1.664-.92 0-1.457.682-1.457 1.663v4.561H81.94V28.623h1.773v3.848h.016c.353-.505 1.08-.938 2.205-.882 1.385.07 2.45 1.261 2.45 2.65v5.152z"/></g><g><path fill="#768080" d="M89.107 37.903l.98-1.14c.064-.08.158-.08.222-.017.697.554 1.726 1.14 2.93 1.14 1.283 0 2.027-.649 2.027-1.55 0-.777-.476-1.285-1.963-1.49l-.57-.079c-2.075-.285-3.247-1.283-3.247-3.072 0-1.949 1.425-3.246 3.642-3.246 1.346 0 2.628.427 3.485 1.077.079.063.094.126.03.22l-.76 1.173c-.062.08-.141.094-.221.047-.872-.57-1.678-.839-2.582-.839-1.092 0-1.694.602-1.694 1.441 0 .744.523 1.251 1.98 1.457l.57.08c2.074.284 3.215 1.266 3.215 3.12 0 1.915-1.378 3.34-4.055 3.34-1.583 0-3.12-.633-3.958-1.425-.064-.064-.096-.158-.031-.237zm9.215-.444c-.16-.474-.238-1.077-.238-1.885 0-.807.078-1.41.238-1.884.443-1.362 1.615-2.106 3.152-2.106 1.14 0 2.04.46 2.644 1.187.047.064.062.16-.016.222l-.998.871c-.078.063-.158.048-.222-.03-.38-.429-.775-.667-1.408-.667-.682 0-1.204.333-1.427.997-.126.381-.158.824-.158 1.41 0 .888.073 1.484.438 1.955.186.242.474.393.778.43.858.102 1.329-.138 1.777-.642.064-.08.144-.08.222-.017l.998.871c.078.064.063.143.016.222-.603.713-1.504 1.172-2.644 1.172-1.537 0-2.71-.744-3.152-2.106zm7.062-7.14v-1.696h1.774v1.694l-.001.001zm3.309 7.125c-.158-.492-.27-1.078-.27-1.87 0-.79.096-1.393.254-1.884.429-1.33 1.6-2.106 3.12-2.106 1.568 0 2.708.808 3.135 2.106.176.538.254 1.061.254 2.296 0 .096-.064.16-.175.16h-4.702a.095.095 0 0 0-.096.092c0 .222.048.413.112.587.252.745.855 1.157 1.71 1.157.854 0 1.409-.318 1.79-.729.078-.079.158-.095.237-.032l.933.824c.08.063.08.142.016.221-.648.76-1.726 1.3-3.136 1.3-1.614 0-2.755-.792-3.182-2.122zm-1.535 1.947h-1.773v-7.633h1.773zm6.143-5.32c-.205-.619-.775-.983-1.49-.983-.727 0-1.297.364-1.502.982a1.91 1.91 0 0 0-.096.65c0 .05.043.094.096.094h2.992a.096.096 0 0 0 .096-.095c0-.27-.032-.46-.096-.649zm7.822 5.32v-4.56c0-.983-.49-1.664-1.441-1.664-.918 0-1.456.681-1.456 1.663v4.561h-1.774v-7.633h1.616c.088 0 .158.071.158.158v.555h.017c.352-.505 1.08-.938 2.204-.882 1.384.07 2.45 1.261 2.45 2.65v5.152zm3.199-1.932c-.16-.474-.238-1.077-.238-1.885 0-.807.079-1.41.238-1.884.443-1.362 1.616-2.106 3.152-2.106 1.14 0 2.042.46 2.644 1.187.047.064.062.16-.016.222l-.998.871c-.08.063-.158.048-.222-.03-.38-.429-.775-.667-1.408-.667-.682 0-1.204.333-1.426.997-.127.381-.158.824-.158 1.41 0 .888.072 1.484.437 1.955.187.242.474.393.778.43.858.102 1.329-.138 1.777-.642.064-.08.143-.08.222-.017l.998.871c.078.064.063.143.016.222-.602.713-1.504 1.172-2.644 1.172-1.536 0-2.71-.744-3.152-2.106zm6.92-.015c-.16-.492-.27-1.078-.27-1.87 0-.79.096-1.393.254-1.884.428-1.33 1.6-2.106 3.119-2.106 1.568 0 2.708.808 3.136 2.106.174.538.254 1.061.254 2.296 0 .096-.064.16-.175.16h-4.703a.095.095 0 0 0-.096.092c0 .224.048.413.112.587.253.745.855 1.157 1.709 1.157.856 0 1.41-.318 1.79-.729.079-.079.16-.095.239-.032l.933.824c.079.063.079.142.016.221-.65.76-1.727 1.3-3.136 1.3-1.615 0-2.755-.792-3.182-2.122zm4.608-3.374c-.206-.618-.776-.982-1.49-.982-.727 0-1.297.364-1.503.982a1.908 1.908 0 0 0-.096.648c0 .052.044.096.096.096h2.993a.096.096 0 0 0 .095-.096c0-.269-.032-.459-.095-.648z"/></g><g><path fill="#232c65" d="M63.724.935c.267-.314.645-.519 1.244-.519h35.887c.331 0 .582.095.772.252.205.188.299.44.299.818v1.385c0 .378-.094.63-.299.82-.19.157-.441.251-.772.251H67.974v18.274c0 .52-.126.82-.347 1.087-.267.315-.645.52-1.243.52h-2.502c-1.103 0-1.873-.568-2.33-1.323-.331-.536-8.453-14.923-8.453-14.923h-.079v14.64c0 .52-.126.82-.346 1.086-.267.315-.646.52-1.243.52h-1.464c-.599 0-.976-.205-1.244-.52-.22-.267-.346-.567-.346-1.087V1.958c0-.519.126-.818.346-1.085.268-.316.645-.52 1.244-.52h2.581c.787 0 1.196.141 1.59.363.393.236.693.55.96 1.007.378.645 8.202 14.591 8.202 14.591h.078V2.022c0-.52.125-.819.346-1.087zM78.079 6.35c2.975 0 5.084 1.118 6.469 2.77 1.354 1.638 2 3.778 2 5.84 0 .677-.127 1.04-.394 1.291-.236.236-.583.346-1.07.346H74.128c.11 1.967 1.638 3.761 3.998 3.761 1.574 0 2.645-.566 3.385-1.652.251-.378.597-.566 1.101-.566h2.535c.33 0 .519.094.645.251.126.142.173.331.173.551 0 .645-.52 1.7-1.165 2.456-1.48 1.747-4.061 2.74-6.689 2.74-5.274 0-8.563-4.22-8.563-9.02 0-4.503 3.069-8.768 8.531-8.768zm16.89 0c2.391 0 4.376.724 5.634 1.811.945.802 1.48 1.857 1.48 2.675 0 .363-.079.583-.205.724-.156.173-.361.22-.646.22h-1.778c-.44 0-.724 0-.976-.125-.409-.22-.314-.504-.834-1.055-.629-.66-1.605-.897-2.675-.897-1.826 0-2.614.708-2.614 1.59 0 .913.693 1.18 2.173 1.558l3.574.913c1.793.457 2.848 1.117 3.588 2.078.581.755.897 1.683.897 2.77 0 4.218-4.36 5.525-7.508 5.525-3.195 0-5.698-1.29-6.894-2.896-.52-.709-.741-1.496-.741-2.125 0-.252.048-.504.19-.677.141-.173.346-.299.77-.299h1.953c.362 0 .629.016.85.142.361.204.44.472.677.834.267.424.644.74 1.086.96.63.315 1.4.456 2.14.456 1.511 0 2.928-.456 2.928-1.795 0-.865-.881-1.164-1.873-1.416l-3.605-.912c-1.668-.426-2.818-1.024-3.621-1.89a4.05 4.05 0 0 1-1.116-2.849c0-3.274 2.833-5.32 7.146-5.32zm9.806-4.534c0-.408.126-.708.315-.943.236-.284.566-.457 1.054-.457h1.779c.488 0 .818.173 1.054.457.189.235.315.535.315.943v5.132h2.85c.33 0 .582.095.771.252.204.19.299.44.299.818v1.086c0 .38-.095.63-.299.82-.189.156-.441.252-.771.252h-2.866v7.54c0 .881.237 1.557.709 1.997.393.378.976.598 1.825.598h.19c.33 0 .582.095.77.253.206.188.332.44.332.818v1.37c0 .378-.126.63-.332.818-.188.157-.44.252-.77.252h-1.338c-2.142 0-3.369-.582-4.313-1.51-1.023-1.008-1.574-2.267-1.574-4.282v-7.854h-.881c-.332 0-.583-.096-.771-.253-.206-.189-.3-.44-.3-.819V8.018c0-.378.094-.629.3-.818.188-.157.439-.252.771-.252h.881zm9.633.002c0-.41.126-.709.315-.945.235-.284.567-.457 1.054-.457h1.873c.488 0 .819.173 1.055.457.189.236.314.535.314.945V22.42c0 .41-.125.71-.314.945-.236.284-.567.457-1.055.457h-1.873c-.487 0-.819-.173-1.054-.457a1.447 1.447 0 0 1-.315-.945zM82.03 13.244c-.204-1.936-1.731-3.384-3.935-3.384-2.251 0-3.731 1.448-3.935 3.384zm40.484-9.302c-.284 0-.488-.079-.629-.236-.111-.127-.174-.268-.174-.583v-.818c0-.283.063-.489.205-.646.125-.14.3-.25.661-.283L135.139.132c.424-.047.676-.078.927-.078.316 0 .599.11.772.3.189.203.299.487.299 1.054v1.463c0 .378-.094.63-.299.82-.189.157-.441.251-.772.251zm6.612 2.408c2.975 0 5.114 1.118 6.501 2.77 1.352 1.638 1.998 3.778 1.998 5.84 0 .677-.126 1.04-.394 1.291-.236.236-.582.346-1.07.346h-10.987c.11 1.967 1.637 3.761 3.999 3.761 1.573 0 2.643-.566 3.384-1.652.252-.378.597-.566 1.101-.566h2.535c.33 0 .519.094.645.251.126.142.174.331.174.551 0 .645-.521 1.7-1.166 2.456-1.479 1.747-4.061 2.74-6.69 2.74-5.272 0-8.561-4.22-8.561-9.02 0-4.503 3.068-8.768 8.531-8.768zm3.95 6.894c-.204-1.936-1.731-3.384-3.935-3.384-2.25 0-3.731 1.448-3.935 3.384z"/></g><g><path fill="#768080" d="M142.148 40.073c-1.184 0-2.129-.92-2.129-2.092 0-1.148.945-2.068 2.129-2.068 1.198 0 2.119.92 2.119 2.068 0 1.172-.921 2.092-2.119 2.092zm.013-.44c.907 0 1.575-.732 1.575-1.639 0-.92-.668-1.664-1.588-1.664s-1.601.744-1.601 1.651c0 .92.681 1.651 1.614 1.651zm-.34-.568h-.479v-2.068c.189-.038.453-.062.794-.062.391 0 .567.062.719.15a.578.578 0 0 1 .202.454c0 .227-.177.404-.429.48v.024c.201.077.314.228.378.505.062.315.1.441.151.517h-.516c-.065-.076-.102-.265-.164-.504-.039-.228-.164-.328-.429-.328h-.227zm.013-1.173h.227c.264 0 .478-.088.478-.302 0-.189-.139-.315-.44-.315-.126 0-.215.012-.265.025z"/></g></g></svg>