<svg xmlns="http://www.w3.org/2000/svg" width="96" height="64" viewBox="0 0 96 64"><g><g opacity=".6"><g opacity=".6"><path fill="#4dbad6" d="M63.613 13.988l2.48-4.293h.001z"/></g><g opacity=".6"><path fill="#4dbad6" d="M66.742 20.91l-3.38-5.85c-.018-.032-.03-.067-.043-.102.013.034.024.07.043.102z"/></g><g opacity=".6"><path fill="#4dbad6" d="M71.371 28.744z"/></g><g opacity=".6"><path fill="#4dbad6" d="M72.672 9.78h-.004.004z"/></g><g opacity=".6"><path fill="#4dbad6" d="M28.624 41.181l4.647 8.042a.642.642 0 0 1 0 .635l-4.648 8.04-4.644-8.033a.652.652 0 0 1 0-.648z"/></g><g opacity=".6"><path fill="#4dbad6" d="M48.401 35.77l7.772 13.447a.662.662 0 0 1 0 .648l-2.734 4.721h-6.275a.644.644 0 0 1-.563-.328l-10.87-18.807h12.111c.232 0 .444.121.56.318z"/></g><g opacity=".6"><path fill="#4dbad6" d="M66.095 9.695v-.001h6.249z"/></g><g opacity=".6"><path fill="#4dbad6" d="M72.91 10.024a.63.63 0 0 0 0-.001l10.872 18.805z"/></g><g opacity=".6"><path fill="#4dbad6" d="M71.371 28.744a.649.649 0 0 0 .321.084h12.09-12.09a.649.649 0 0 1-.321-.084z"/></g><g opacity=".6"><path fill="#4dbad6" d="M71.223 28.624a.71.71 0 0 1-.088-.113l-4.392-7.601 4.393 7.6a.652.652 0 0 0 .087.114z"/></g><g opacity=".6"><path fill="#4dbad6" d="M63.32 14.958a.63.63 0 0 1 .042-.534l.251-.436-.25.436a.636.636 0 0 0-.044.534z"/></g><g opacity=".3"><g opacity=".3"><path fill="#4dbad6" d="M72.672 9.78h-.004a.645.645 0 0 0-.323-.086h-6.251L71.136.969a.64.64 0 0 1 .557-.317h15.54c.229 0 .444.119.558.317l7.775 13.456a.638.638 0 0 1 0 .638L87.79 28.51a.637.637 0 0 1-.558.318h-3.451L72.909 10.023a.627.627 0 0 0-.237-.242z"/></g></g><g opacity=".3"><g opacity=".3"><path fill="#4dbad6" d="M3.766 26.19a.607.607 0 0 1 .53-.309h7.074c.216 0 .419.118.529.309l3.54 6.122a.614.614 0 0 1 0 .607l-3.54 6.129a.61.61 0 0 1-.53.302H4.298a.603.603 0 0 1-.531-.302l-3.54-6.129a.6.6 0 0 1 0-.607z"/></g></g><g opacity=".3"><g opacity=".3"><path fill="#4dbad6" d="M15.76 39.751a.629.629 0 0 1 .547-.317H27.25c.224 0 .436.121.548.317l.825 1.427 3.124-5.408a.642.642 0 0 1 .557-.319h3.424l-1.724-2.985a.642.642 0 0 1 0-.653l12.597-21.789a.631.631 0 0 1 .564-.329h18.928l-2.48 4.293-.25.435a.624.624 0 0 0-.044.533c.013.036.024.072.043.105l3.381 5.848 4.391 7.601a.71.71 0 0 0 .237.233.646.646 0 0 0 .321.084h12.09l1.726 2.986a.647.647 0 0 1 0 .653L72.91 54.257a.65.65 0 0 1-.565.328H53.445l-5.044 8.727a.65.65 0 0 1-.559.32H32.304a.651.651 0 0 1-.557-.32l-3.127-5.414-.822 1.421a.633.633 0 0 1-.548.318H16.307a.626.626 0 0 1-.547-.318l-5.472-9.462a.623.623 0 0 1 0-.635zm30.841 14.507c.112.203.33.328.563.328h6.275l2.734-4.722a.66.66 0 0 0 0-.647L48.401 35.77a.642.642 0 0 0-.558-.319H35.73zm-22.622-5.04a.65.65 0 0 0 0 .646l4.644 8.034 4.648-8.04a.647.647 0 0 0 0-.635l-4.647-8.042z"/></g></g><g opacity=".6"><path fill="#4dbad6" d="M72.344 9.695c.116 0 .228.029.324.085h.004a.622.622 0 0 1 .237.244l10.873 18.804h-12.09a.65.65 0 0 1-.321-.084.645.645 0 0 1-.147-.12.578.578 0 0 1-.088-.114l-4.394-7.6-3.38-5.85c-.02-.032-.03-.068-.042-.103a.63.63 0 0 1 .043-.533l.252-.436 2.48-4.293z"/></g></g></g></svg>